<svg width="36" height="62" viewBox="0 0 36 62" fill="none" xmlns="http://www.w3.org/2000/svg">
<path opacity="0.7" fill-rule="evenodd" clip-rule="evenodd" d="M33.8569 27.0376C35.577 26.5487 35.6998 26.4858 35.9005 25.991C36.5203 24.4637 34.3087 20.7548 27.4245 11.776C21.8512 4.50696 21.5972 4.20099 21.0135 4.05461C20.6616 3.96635 19.9457 3.31243 18.8436 2.07289C17.8913 1.00198 16.9899 0.157176 16.7031 0.0667798C15.982 -0.160189 15.8735 -0.0475451 12.5499 4.38163C10.7522 6.77735 3.28501 18.9195 1.33788 22.6133C0.617356 23.9801 0.0160913 25.3569 0.0020205 25.673C-0.0324962 26.4368 0.377515 26.9647 1.05669 27.0315C1.91109 27.1156 12.2485 27.3065 17.2496 27.3306C18.0149 27.3343 18.6587 27.3974 18.68 27.4706C18.8752 28.1418 19.5005 32.5966 19.6655 34.4904C20.7859 47.3588 17.7028 56.3529 11.094 59.6693C10.514 59.9603 10.2079 60.638 10.4384 61.2477C10.6675 61.8537 11.3407 62.1679 11.931 61.9084C13.3234 61.2963 14.3564 60.5939 15.5198 59.5037C20.4831 54.8517 22.6903 47.1586 22.1492 36.3965C22.014 33.7073 21.4857 29.209 21.1826 28.1669C21.0956 27.8678 21.0743 27.5663 21.1352 27.4971C21.1961 27.4277 22.776 27.4479 24.6463 27.542C29.5096 27.7861 31.6318 27.6698 33.8569 27.0376ZM31.9678 22.1067C30.0713 19.1569 22.5078 9.01923 21.0151 7.42663C20.6889 7.07855 20.6763 7.08873 19.261 8.86549C17.7046 10.8192 16.213 12.8997 13.6345 16.713C12.7131 18.0758 11.122 20.3902 10.0988 21.856C9.07546 23.3217 8.25878 24.5913 8.2837 24.677C8.28806 24.6919 8.29152 24.7056 8.29738 24.7182C8.36244 24.8579 8.72393 24.8576 13.9025 24.8841C16.278 24.8961 20.6326 24.9927 23.5796 25.0987C28.6015 25.2791 31.7925 25.2028 32.9239 24.8755C33.566 24.6896 33.4938 24.4803 31.9678 22.1067ZM17.0166 3.64431C16.5216 3.11471 16.5193 3.1148 16.0621 3.66357C15.6101 4.20585 15.6712 4.37042 16.3135 4.34013C16.5996 4.32669 16.9847 4.317 17.1697 4.31862C17.5815 4.3221 17.5594 4.22498 17.0166 3.64431ZM15.8717 6.77534C14.9094 6.82005 14.0144 6.88969 13.8828 6.93024C13.6167 7.01221 12.3245 8.9134 12.3876 9.1302C12.4096 9.20577 13.0281 9.14578 13.762 8.9968C14.4959 8.84782 15.3429 8.74682 15.644 8.77234C16.1247 8.8132 16.2841 8.70676 16.948 7.89997C17.3641 7.39436 17.6857 6.9164 17.6628 6.83756C17.6398 6.75856 16.8339 6.73066 15.8717 6.77534ZM10.3794 12.0855C10.2541 12.2122 10.0235 12.5766 9.86721 12.8953L9.583 13.4747L10.2971 13.3848C10.6898 13.3352 11.2728 13.26 11.5924 13.2174C12.3266 13.12 13.5971 12.4132 14.0803 11.8332C14.4491 11.3908 14.4437 11.39 12.5289 11.6222C11.4248 11.756 10.5105 11.9531 10.3794 12.0855ZM9.44569 15.9723C7.88471 16.1866 7.82588 16.2091 7.54395 16.7015C7.16379 17.3649 7.37619 17.4032 9.28267 17.0152C10.5766 16.7519 10.8265 16.6492 11.0388 16.2943C11.175 16.0667 11.2347 15.8513 11.1715 15.8159C11.1082 15.7803 10.3317 15.8508 9.44569 15.9723ZM7.54364 19.7947C7.01419 19.9507 6.34696 20.0429 6.06108 19.9998C5.60049 19.93 5.50371 19.9913 5.21254 20.5383C5.0318 20.8778 4.94097 21.1876 5.01067 21.2269C5.26363 21.3691 7.77899 20.5881 8.19111 20.2395C8.86285 19.6711 8.59249 19.4856 7.54364 19.7947ZM4.61443 23.7588C3.67934 23.9865 3.16651 24.1944 3.04061 24.3962L3.01335 24.4396C2.95783 24.5273 2.91944 24.588 2.93403 24.6298C2.96674 24.7238 3.26585 24.7231 4.23579 24.7209L4.45036 24.7204C5.4615 24.7186 5.49981 24.704 5.78592 24.2049C5.94771 23.9222 6.06252 23.6302 6.04097 23.5561C6.01935 23.4818 5.37732 23.5731 4.61443 23.7588Z" fill="#F8F8F8"/>
</svg>
