<svg width="47" height="43" viewBox="0 0 47 43" fill="none" xmlns="http://www.w3.org/2000/svg">
<path opacity="0.7" fill-rule="evenodd" clip-rule="evenodd" d="M14.4516 10.5393C14.3388 11.0617 14.4053 11.1838 15.5581 12.5708C17.0494 14.3649 18.7467 15.675 22.9247 18.2568C24.5316 19.2496 25.8555 20.137 25.8669 20.229C25.8785 20.3208 25.6904 20.557 25.4491 20.7536C24.6085 21.4387 21.6282 24.842 19.9966 26.9799C15.2169 33.2429 4.15731 38.8625 0.68216 40.5267C0.101042 40.805 -0.143054 41.5051 0.144544 42.0816V42.0816C0.409561 42.6129 1.03713 42.8472 1.57748 42.6012C4.86829 41.1029 15.8668 35.66 23.1369 26.831C24.3439 25.3652 27.3802 22.0533 27.9215 21.6121C27.9806 21.5639 28.5511 21.8804 29.1889 22.3152C33.3572 25.1571 42.0528 30.9151 42.8101 31.3348C43.412 31.6684 44.0509 31.4681 44.4538 30.8191C44.6207 30.5507 44.899 29.0724 45.0727 27.5342C45.542 23.3771 46.1987 9.10168 46.0587 6.09944C45.8001 0.54893 45.7736 0.394044 45.0463 0.168363C44.757 0.0787244 43.5308 0.258858 42.1347 0.596172C40.5189 0.986641 39.5546 1.11565 39.2124 0.986998C38.6448 0.773595 38.261 0.880284 29.5242 3.67928C18.7324 7.13663 14.7996 8.92639 14.4516 10.5393ZM37.306 3.76389C35.1662 4.22172 23.1553 8.24493 19.9133 9.58979C17.3045 10.6719 17.1263 10.803 17.5547 11.3236C18.3096 12.2406 20.9174 14.1295 25.1913 16.8544C27.6993 18.4535 31.3714 20.8657 33.3517 22.2151C38.0573 25.4212 37.9904 25.3788 38.1365 25.2597C38.2057 25.2033 38.2445 23.6902 38.2224 21.8972C38.2006 20.1042 38.1863 17.2871 38.1908 15.6372C38.2032 11.0205 38.1394 8.45299 37.9503 5.95297C37.7784 3.67942 37.7737 3.66384 37.306 3.76389ZM43.5467 3.49816C43.477 2.78448 43.4751 2.78311 42.7647 2.93612C41.9856 3.10384 41.9124 3.1712 42.2565 3.40395C42.4111 3.50852 42.7256 3.73687 42.9556 3.91166C43.4721 4.30417 43.6158 4.20355 43.5467 3.49816ZM43.5115 7.43621C43.4251 7.32752 42.721 6.75801 41.9468 6.17057C41.1727 5.58314 40.4875 5.14498 40.4238 5.19692C40.3602 5.24874 40.3573 5.8265 40.4173 6.48112C40.513 7.52565 40.5853 7.70454 41.0078 7.94595C41.2723 8.09721 41.9188 8.66507 42.4444 9.20776C42.9699 9.75044 43.4498 10.1538 43.5108 10.1041C43.6857 9.96162 43.6863 7.65605 43.5115 7.43621ZM43.4774 14.648C43.5276 14.296 43.5419 13.8638 43.5093 13.6878C43.4753 13.5037 42.827 12.8182 41.9855 12.0762C40.5259 10.7892 40.521 10.7868 40.5774 11.3622C40.6512 12.1165 41.3073 13.4258 41.8622 13.9261C42.1036 14.1441 42.5455 14.5397 42.8437 14.8052L43.3861 15.2879L43.4774 14.648ZM43.257 19.1129C43.301 18.5459 43.2648 18.4937 42.0891 17.424C41.4217 16.8168 40.8164 16.3145 40.7438 16.3076C40.6714 16.3006 40.5992 16.5122 40.5837 16.7776C40.5596 17.1914 40.7092 17.4191 41.6353 18.3764C42.9999 19.787 43.198 19.8769 43.257 19.1129ZM42.6254 22.6785C42.3636 22.5505 41.8614 22.0927 41.5097 21.6612C40.813 20.8064 40.4836 20.8045 40.7205 21.6571C40.8659 22.1801 42.5143 24.2628 42.8048 24.2905C42.8849 24.2979 42.9845 23.9907 43.0261 23.6077C43.0932 22.9905 43.0475 22.8846 42.6254 22.6785ZM42.6508 28.0286C42.6603 27.7903 42.3517 27.3256 41.7035 26.603C41.1747 26.0134 40.6929 25.5708 40.6329 25.6197C40.5731 25.6684 40.5036 25.9746 40.4783 26.3C40.434 26.8749 40.4575 26.9089 41.2965 27.489L41.4741 27.6119C42.2789 28.1689 42.5271 28.3407 42.6074 28.2821C42.6431 28.2559 42.6455 28.1839 42.649 28.0799L42.6508 28.0286Z" fill="#F8F8F8"/>
</svg>
