<svg width="42" height="44" viewBox="0 0 42 44" fill="none" xmlns="http://www.w3.org/2000/svg">
<path opacity="0.7" fill-rule="evenodd" clip-rule="evenodd" d="M31.651 11.2528C31.7637 11.7753 31.6972 11.8973 30.5445 13.2844C29.0532 15.0785 27.3559 16.3886 23.1778 18.9704C21.571 19.9631 20.247 20.8505 20.2356 20.9425C20.2241 21.0344 20.4122 21.2706 20.6534 21.4672C21.494 22.1522 24.4743 25.5555 26.1059 27.6935C31.018 34.1298 38.6294 39.8862 40.6598 41.3686C40.9827 41.6045 41.1721 41.9753 41.1724 42.3752V42.3752C41.1732 43.3693 40.0731 43.936 39.287 43.3275C36.0718 40.839 29.2674 35.1975 22.9657 27.5445C21.7587 26.0788 18.7224 22.7669 18.181 22.3257C18.122 22.2775 17.5515 22.5939 16.9136 23.0288C12.7454 25.8707 4.04975 31.6287 3.29247 32.0483C2.6905 32.3819 2.05161 32.1816 1.64877 31.5327C1.48189 31.2643 1.20352 29.786 1.02988 28.2477C0.560575 24.0907 -0.0961424 9.81525 0.0437898 6.81301C0.30244 1.2625 0.328929 1.10761 1.05627 0.881927C1.34557 0.792288 2.57173 0.972424 3.96782 1.30974C5.58369 1.70021 6.54791 1.82921 6.89012 1.70056C7.4577 1.48716 7.84158 1.59385 16.5784 4.39285C27.3702 7.8502 31.3029 9.63996 31.651 11.2528ZM8.79657 4.47746C10.9364 4.93528 22.9473 8.9585 26.1893 10.3034C28.7981 11.3855 28.9762 11.5166 28.5478 12.0371C27.7929 12.9542 25.1851 14.843 20.9112 17.568C18.4032 19.1671 14.7311 21.5793 12.7508 22.9286C8.04525 26.1348 8.11213 26.0923 7.96601 25.9732C7.89688 25.9169 7.85808 24.4038 7.88016 22.6107C7.90197 20.8178 7.91624 18.0007 7.91174 16.3508C7.89938 11.734 7.96311 9.16656 8.1522 6.66653C8.32418 4.39298 8.32887 4.37741 8.79657 4.47746ZM2.55579 4.21173C2.62559 3.49804 2.62744 3.49667 3.33787 3.64969C4.11689 3.81741 4.19014 3.88477 3.84609 4.11752C3.69145 4.22209 3.37696 4.45044 3.14689 4.62523C2.63042 5.01773 2.48669 4.91712 2.55579 4.21173ZM2.59099 8.14978C2.6774 8.04108 3.38157 7.47158 4.1557 6.88414C4.92983 6.2967 5.61505 5.85854 5.67879 5.91048C5.74237 5.9623 5.74525 6.54007 5.68525 7.19469C5.58949 8.23921 5.51724 8.41811 5.09478 8.65951C4.83025 8.81077 4.18372 9.37864 3.65818 9.92132C3.13265 10.464 2.6527 10.8674 2.59175 10.8177C2.41689 10.6752 2.4162 8.36961 2.59099 8.14978ZM2.62515 15.3615C2.57491 15.0095 2.56063 14.5774 2.59319 14.4014C2.62726 14.2172 3.2755 13.5317 4.11709 12.7897C5.57661 11.5028 5.58152 11.5003 5.52514 12.0758C5.45138 12.8301 4.79521 14.1393 4.24035 14.6397C3.9989 14.8576 3.55705 15.2532 3.25883 15.5188L2.7164 16.0015L2.62515 15.3615ZM2.84549 19.8264C2.80152 19.2595 2.83772 19.2073 4.01343 18.1376C4.68081 17.5304 5.28609 17.0281 5.35871 17.0212C5.43118 17.0141 5.50337 17.2257 5.51881 17.4912C5.54294 17.905 5.39332 18.1327 4.46722 19.09C3.10262 20.5005 2.90452 20.5905 2.84549 19.8264ZM3.4771 23.3921C3.73897 23.264 4.24118 22.8063 4.59286 22.3748C5.28954 21.52 5.61895 21.5181 5.38204 22.3707C5.23662 22.8937 3.58823 24.9764 3.29777 25.004C3.21764 25.0115 3.11806 24.7043 3.0764 24.3212C3.00929 23.7041 3.05505 23.5981 3.4771 23.3921ZM3.45172 28.7422C3.44229 28.5039 3.75088 28.0392 4.39906 27.3165C4.92787 26.7269 5.40967 26.2844 5.46961 26.3332C5.52941 26.382 5.59898 26.6882 5.62427 27.0136C5.66857 27.5885 5.64502 27.6225 4.80602 28.2025L4.6284 28.3254C3.8236 28.8825 3.57541 29.0543 3.49518 28.9956C3.4594 28.9695 3.45701 28.8975 3.45355 28.7935L3.45172 28.7422Z" fill="#F8F8F8"/>
</svg>
