<svg width="190" height="107" viewBox="0 0 190 107" fill="none" xmlns="http://www.w3.org/2000/svg">
<path fill-rule="evenodd" clip-rule="evenodd" d="M95.4087 0.185561C95.182 0.276768 94.7822 0.764176 94.5205 1.26905C93.9287 2.41075 93.7958 15.2454 94.3059 21.9623C94.4884 24.3638 94.5961 29.4271 94.5455 33.2138L94.4531 40.0992L95.2618 40.7335C96.6198 41.7988 98.5878 41.326 99.1893 39.7897C99.6044 38.7298 99.4108 22.0975 98.9328 17.7578C98.747 16.0678 98.5907 11.6149 98.5859 7.86246C98.5781 1.6701 98.5223 0.990251 97.984 0.504462C97.4107 -0.0130238 96.2589 -0.155656 95.4087 0.185561ZM161.768 20.9112C160.309 22.5102 156.066 27.9276 155.658 28.7116C155.167 29.657 152.486 33.1944 152.065 33.4541C151.776 33.6323 148.926 37.2278 146.717 40.2014C145.428 41.9357 143.736 44.9652 143.615 45.7566C143.315 47.7072 144.91 49.1737 146.625 48.5236C147.393 48.2325 150.784 43.741 150.784 43.0159C150.784 42.8429 151.361 42.001 152.067 41.1452C152.772 40.2894 153.952 38.8615 154.688 37.972C156.714 35.5234 159.539 31.5507 159.539 31.1496C159.539 30.954 159.795 30.4905 160.107 30.1195C160.419 29.7489 161.227 28.7886 161.903 27.9862C163.69 25.8626 165.7 22.7735 165.7 22.1493C165.7 21.3536 164.225 20.0218 163.344 20.0218C162.922 20.0218 162.215 20.4212 161.768 20.9112ZM36.4878 22.725C35.5565 23.4045 35.7676 24.8363 37.0832 26.7652C37.7323 27.7171 38.2635 28.6402 38.2635 28.8164C38.2635 28.993 38.5663 29.5241 38.9363 29.9969C39.3063 30.4698 40.3926 32.0937 41.3499 33.6058C42.3071 35.1178 43.4433 36.7915 43.8752 37.3252C44.3068 37.8588 45.1418 39.1687 45.7304 40.236C46.3192 41.3034 47.0621 42.4703 47.3815 42.829C47.7009 43.1876 48.3443 44.1974 48.8109 45.0732C49.7276 46.7926 52.3493 49.817 53.9402 50.99C55.2379 51.9467 56.8706 51.9509 57.5389 50.9988C58.6485 49.4188 57.9812 47.7577 55.3186 45.4743C54.1292 44.4545 53.2748 43.3824 52.8308 42.3529C52.4589 41.4903 51.8016 40.454 51.37 40.0497C50.9388 39.6455 50.5856 39.1577 50.5856 38.9659C50.5856 38.7741 49.8194 37.5652 48.8832 36.2799C47.9471 34.9946 46.889 33.509 46.5323 32.9789C46.1756 32.4488 45.314 31.1723 44.6175 30.1422C43.921 29.112 42.5555 27.0651 41.583 25.5935C40.6105 24.1222 39.5482 22.7757 39.2227 22.6017C38.387 22.1557 37.195 22.2094 36.4878 22.725ZM91.119 50.9338C85.7118 51.3956 82.7775 51.8643 79.3484 52.8142C78.3143 53.1004 77.0717 53.3349 76.5873 53.3349C76.1032 53.3349 75.1508 53.6321 74.4711 53.9953C73.7918 54.3585 72.4078 54.9608 71.3954 55.3334C69.0805 56.1859 67.4877 57.0773 63.3141 59.8555C61.4865 61.0719 59.9148 62.0675 59.8214 62.0675C59.4216 62.0675 55.0589 65.6362 52.3341 68.1916C50.7095 69.7153 48.9585 71.335 48.4429 71.7907C47.0096 73.0579 44.3574 76.4681 43.4518 78.2082C43.0059 79.0646 42.2802 80.4046 41.8389 81.1853C41.3978 81.9664 40.8615 83.2601 40.6468 84.0606C40.4325 84.8611 39.7992 86.7531 39.2392 88.2652C38.03 91.5308 37.708 92.8009 37.2699 96.0275C37.089 97.3616 36.8108 99.112 36.6519 99.917C36.2692 101.854 36.7443 105.596 37.4745 106.401C38.1883 107.188 39.5936 107.201 40.5483 106.43C41.0966 105.987 41.2617 105.556 41.1975 104.732C40.9731 101.861 41.1368 99.4354 41.7416 96.6743C41.9948 95.5181 42.3126 94.0626 42.4481 93.44C42.5834 92.8174 43.3567 90.6343 44.1668 88.5886C44.9765 86.5429 45.7479 84.5053 45.8808 84.0606C46.0138 83.6159 46.3098 83.0337 46.5384 82.7669C46.7671 82.5001 47.1854 81.7235 47.4678 81.0414C48.0651 79.5986 50.6722 76.3921 52.4573 74.9043C53.1379 74.337 54.7829 72.8037 56.1128 71.497C58.678 68.9765 62.0228 66.3393 65.4954 64.1002C68.2351 62.3336 76.5912 58.1863 77.4109 58.1863C77.7595 58.1863 79.1989 57.8787 80.6095 57.5026C83.4099 56.7561 86.5815 56.2089 86.9155 56.4149C87.0316 56.4864 87.6882 56.3903 88.3747 56.2011C89.8018 55.8082 90.7905 55.7221 97.2282 55.4307C102.07 55.2114 105.107 55.6228 107.485 56.8211C108.014 57.088 109.255 57.4916 110.241 57.7183C113.028 58.3587 114.09 58.7012 117.136 59.9429C118.693 60.5778 120.196 61.0972 120.475 61.0972C120.755 61.0972 121.378 61.2967 121.859 61.5403C122.341 61.7841 123.427 62.084 124.274 62.2069C125.12 62.3294 126.214 62.7544 126.706 63.1506C127.197 63.5468 127.964 64.1241 128.41 64.4337C128.856 64.7432 130.169 65.653 131.328 66.4554C132.487 67.2578 134.103 68.4545 134.918 69.1146C135.734 69.7748 137.193 70.9482 138.161 71.7218C145.475 77.5678 144.824 76.8349 150.261 85.3543C150.886 86.3327 151.496 87.4243 151.618 87.78C151.74 88.1358 152.167 89.1546 152.569 90.044C154.052 93.331 154.652 95.5818 154.853 98.6149C154.965 100.305 155.205 102.174 155.387 102.769C155.803 104.128 157.255 104.844 158.627 104.367C159.998 103.89 160.157 102.777 159.705 96.8386C159.499 94.1441 159.25 92.919 158.676 91.7786C158.259 90.9506 157.918 90.1013 157.918 89.8904C157.918 89.2448 155.189 83.9956 153.962 82.2817C153.326 81.3923 152.331 79.7186 151.752 78.5623C150.951 76.9626 149.846 75.6291 147.128 72.9832C145.164 71.0711 143.436 69.5063 143.287 69.5063C143.139 69.5063 142.03 68.6651 140.821 67.6369C139.613 66.6087 138.242 65.4809 137.776 65.1303C137.31 64.7801 135.705 63.5588 134.209 62.4171C131.461 60.3184 126.559 57.5395 125.606 57.5395C124.775 57.5395 118.02 55.259 116.285 54.3932C115.413 53.9575 113.746 53.4533 112.582 53.2725C111.417 53.0917 109.931 52.666 109.278 52.3268C105.838 50.5385 100.523 50.131 91.119 50.9338ZM186.056 61.3074C184.099 63.4831 183.007 64.3476 179.174 66.7572C178.608 67.1129 177.351 68.0874 176.381 68.9229C174.265 70.7454 170.88 73.0621 170.332 73.0634C169.869 73.064 165.906 76.9274 165.399 77.8718C164.866 78.866 164.978 79.4886 165.848 80.3557C167.152 81.6569 168.168 81.4101 170.564 79.2092C171.724 78.1444 172.841 77.2722 173.047 77.2709C173.253 77.2696 174.005 76.7958 174.72 76.2175C175.434 75.6392 176.851 74.5114 177.87 73.7109C178.889 72.9104 179.956 72.0006 180.242 71.6895C180.527 71.378 180.962 71.1235 181.207 71.1235C181.453 71.1235 182.04 70.7153 182.513 70.2166C182.986 69.7178 184.199 68.7663 185.209 68.102C186.959 66.9503 188.838 64.9858 189.646 63.4634C190.197 62.4229 190.104 61.5037 189.372 60.7738C188.376 59.7802 187.269 59.9584 186.056 61.3074ZM0.567467 67.5916C0.189372 67.8112 0 68.3193 0 69.114C0 70.1684 0.264601 70.5604 2.28219 72.4945C3.53743 73.698 4.95998 74.9338 5.44379 75.2414C5.9276 75.5489 7.80089 76.9196 9.60705 78.2877C11.4132 79.6558 13.6176 81.1423 14.5058 81.5912C15.3942 82.0405 16.5431 82.7559 17.0587 83.1818C18.4203 84.3058 22.4886 86.648 23.079 86.648C23.3569 86.648 23.9685 86.3463 24.4384 85.9776C25.6404 85.0348 25.5902 83.6269 24.3122 82.436C23.1828 81.3839 18.9622 78.5723 15.8891 76.8255C14.7298 76.1664 12.9788 75.0373 11.9979 74.3164C11.017 73.5951 9.62813 72.6183 8.91118 72.1452C8.19455 71.6723 7.31903 71.028 6.96558 70.714C3.01374 67.1993 2.05131 66.7297 0.567467 67.5916Z" fill="black"/>
</svg>
