<svg width="174" height="45" viewBox="0 0 174 45" fill="none" xmlns="http://www.w3.org/2000/svg">
<path d="M6.65108 31.2797C6.09447 30.7528 5.82031 30.1068 5.82031 29.3334C5.82031 28.543 6.09447 27.88 6.65108 27.336C7.2077 26.8006 7.91387 26.5371 8.78618 26.5371C9.64188 26.5371 10.3397 26.8006 10.8963 27.336C11.453 27.8715 11.7271 28.5345 11.7271 29.3334C11.7271 30.1068 11.453 30.7528 10.8963 31.2797C10.3397 31.8067 9.64188 32.0702 8.78618 32.0702C7.91387 32.0617 7.1994 31.8067 6.65108 31.2797Z" fill="#ED1757"/>
<path d="M25.8595 32.2727C23.8973 32.2727 22.1758 31.8303 20.695 30.9455C19.2143 30.0606 18.0586 28.8424 17.2279 27.2909C16.4093 25.7273 16 23.9333 16 21.9091C16 19.8606 16.4213 18.0606 17.264 16.5091C18.1067 14.9455 19.2685 13.7273 20.7492 12.8545C22.2299 11.9818 23.9334 11.5455 25.8595 11.5455C27.8218 11.5455 29.5433 11.9879 31.0241 12.8727C32.5168 13.7576 33.6785 14.9818 34.5092 16.5455C35.3399 18.097 35.7552 19.8848 35.7552 21.9091C35.7552 23.9455 35.3338 25.7455 34.4911 27.3091C33.6605 28.8606 32.4988 30.0788 31.006 30.9636C29.5253 31.8364 27.8098 32.2727 25.8595 32.2727ZM25.8595 27.6545C27.4366 27.6545 28.6103 27.1212 29.3808 26.0545C30.1633 24.9758 30.5545 23.5939 30.5545 21.9091C30.5545 20.1636 30.1573 18.7697 29.3627 17.7273C28.5802 16.6848 27.4125 16.1636 25.8595 16.1636C24.7881 16.1636 23.9093 16.4061 23.2231 16.8909C22.5369 17.3758 22.0253 18.0485 21.6882 18.9091C21.3632 19.7697 21.2006 20.7697 21.2006 21.9091C21.2006 23.6667 21.5919 25.0667 22.3744 26.1091C23.1689 27.1394 24.3306 27.6545 25.8595 27.6545Z" fill="black"/>
<path d="M37.9204 31.7273V12.0909H42.2543V16.8909L41.7848 16.2727C42.0376 15.5939 42.3747 14.9758 42.796 14.4182C43.2174 13.8606 43.735 13.4 44.349 13.0364C44.8185 12.7455 45.3301 12.5212 45.8839 12.3636C46.4377 12.1939 47.0095 12.0909 47.5994 12.0545C48.1893 12.0061 48.7791 12.0182 49.369 12.0909V16.7091C48.8273 16.5394 48.1953 16.4848 47.473 16.5455C46.7627 16.5939 46.1186 16.7576 45.5408 17.0364C44.9629 17.303 44.4754 17.6606 44.0781 18.1091C43.6808 18.5455 43.3799 19.0667 43.1752 19.6727C42.9706 20.2667 42.8682 20.9394 42.8682 21.6909V31.7273H37.9204Z" fill="black"/>
<path d="M58.6355 41C57.5279 41 56.4746 40.8182 55.4754 40.4545C54.4762 40.103 53.5793 39.6061 52.7848 38.9636C52.0023 38.3333 51.3642 37.5939 50.8706 36.7455L55.4212 34.5273C55.7342 35.1091 56.1796 35.5515 56.7575 35.8545C57.3474 36.1576 57.9854 36.3091 58.6716 36.3091C59.4059 36.3091 60.0982 36.1818 60.7482 35.9273C61.3983 35.6848 61.916 35.3152 62.3012 34.8182C62.6985 34.3333 62.8851 33.7273 62.861 33V27.2909H63.475V12.0909H67.7727V33.0727C67.7727 33.5576 67.7486 34.0121 67.7005 34.4364C67.6644 34.8727 67.5921 35.303 67.4838 35.7273C67.1708 36.9273 66.5869 37.9151 65.7322 38.6909C64.8895 39.4667 63.8542 40.0424 62.6262 40.4182C61.3983 40.8061 60.0681 41 58.6355 41ZM58.2021 32.2727C56.4084 32.2727 54.8373 31.8182 53.489 30.9091C52.1407 30 51.0873 28.7636 50.3289 27.2C49.5825 25.6364 49.2093 23.8727 49.2093 21.9091C49.2093 19.9091 49.5885 18.1333 50.347 16.5818C51.1174 15.0182 52.1949 13.7879 53.5793 12.8909C54.9637 11.9939 56.5889 11.5455 58.4549 11.5455C60.3088 11.5455 61.8678 12 63.1319 12.9091C64.3959 13.8182 65.353 15.0545 66.003 16.6182C66.6531 18.1818 66.9782 19.9455 66.9782 21.9091C66.9782 23.8727 66.6471 25.6364 65.985 27.2C65.3349 28.7636 64.3598 30 63.0596 30.9091C61.7595 31.8182 60.1403 32.2727 58.2021 32.2727ZM58.9966 27.8727C60.0921 27.8727 60.9649 27.6242 61.615 27.1273C62.2771 26.6303 62.7527 25.9333 63.0416 25.0364C63.3305 24.1394 63.475 23.097 63.475 21.9091C63.475 20.7212 63.3305 19.6788 63.0416 18.7818C62.7527 17.8848 62.2892 17.1879 61.6511 16.6909C61.0251 16.1939 60.2005 15.9455 59.1772 15.9455C58.0817 15.9455 57.1788 16.2182 56.4685 16.7636C55.7703 17.297 55.2527 18.0182 54.9156 18.9273C54.5785 19.8242 54.41 20.8182 54.41 21.9091C54.41 23.0121 54.5725 24.0182 54.8975 24.9273C55.2226 25.8242 55.7222 26.5394 56.3963 27.0727C57.0705 27.6061 57.9372 27.8727 58.9966 27.8727Z" fill="black"/>
<path d="M76.4413 32.2727C75.0448 32.2727 73.859 32.0061 72.8839 31.4727C71.9208 30.9273 71.1865 30.2061 70.6809 29.3091C70.1873 28.4 69.9405 27.4 69.9405 26.3091C69.9405 25.4 70.0789 24.5697 70.3558 23.8182C70.6327 23.0667 71.0781 22.4061 71.6921 21.8364C72.3181 21.2545 73.1548 20.7697 74.2021 20.3818C74.9244 20.1152 75.7852 19.8788 76.7844 19.6727C77.7836 19.4667 78.9152 19.2727 80.1792 19.0909C81.4433 18.897 82.8337 18.6848 84.3506 18.4545L82.5809 19.4364C82.5809 18.2727 82.304 17.4182 81.7503 16.8727C81.1965 16.3273 80.2695 16.0545 78.9694 16.0545C78.247 16.0545 77.4946 16.2303 76.7121 16.5818C75.9296 16.9333 75.3819 17.5576 75.0689 18.4545L70.6267 17.0364C71.1203 15.4121 72.0472 14.0909 73.4076 13.0727C74.7679 12.0545 76.6218 11.5455 78.9694 11.5455C80.6909 11.5455 82.2198 11.8121 83.556 12.3455C84.8923 12.8788 85.9035 13.8 86.5897 15.1091C86.975 15.8364 87.2037 16.5636 87.2759 17.2909C87.3482 18.0182 87.3843 18.8303 87.3843 19.7273V31.7273H83.0865V27.6909L83.7005 28.5273C82.7494 29.8485 81.7202 30.8061 80.6126 31.4C79.5171 31.9818 78.1267 32.2727 76.4413 32.2727ZM77.4886 28.3818C78.3915 28.3818 79.1499 28.2242 79.7639 27.9091C80.3899 27.5818 80.8835 27.2121 81.2446 26.8C81.6178 26.3879 81.8706 26.0424 82.0031 25.7636C82.2559 25.2303 82.4003 24.6121 82.4364 23.9091C82.4846 23.1939 82.5087 22.6 82.5087 22.1273L83.9533 22.4909C82.4966 22.7333 81.3169 22.9394 80.414 23.1091C79.5111 23.2667 78.7828 23.4121 78.229 23.5455C77.6752 23.6788 77.1877 23.8242 76.7663 23.9818C76.2848 24.1758 75.8935 24.3879 75.5926 24.6182C75.3036 24.8364 75.0869 25.0788 74.9425 25.3455C74.8101 25.6121 74.7438 25.9091 74.7438 26.2364C74.7438 26.6848 74.8522 27.0727 75.0689 27.4C75.2976 27.7151 75.6166 27.9576 76.0259 28.1273C76.4353 28.297 76.9228 28.3818 77.4886 28.3818Z" fill="black"/>
<path d="M103.564 31.7273V22.4545C103.564 22.0061 103.54 21.4364 103.492 20.7455C103.444 20.0424 103.293 19.3394 103.041 18.6364C102.788 17.9333 102.372 17.3455 101.795 16.8727C101.229 16.4 100.422 16.1636 99.3749 16.1636C98.9536 16.1636 98.5021 16.2303 98.0206 16.3636C97.539 16.497 97.0876 16.7576 96.6662 17.1455C96.2449 17.5212 95.8958 18.0788 95.6189 18.8182C95.354 19.5576 95.2216 20.5394 95.2216 21.7636L92.4046 20.4182C92.4046 18.8667 92.7176 17.4121 93.3436 16.0545C93.9696 14.697 94.9086 13.6 96.1606 12.7636C97.4247 11.9273 99.0137 11.5091 100.928 11.5091C102.457 11.5091 103.703 11.7697 104.666 12.2909C105.629 12.8121 106.375 13.4727 106.905 14.2727C107.447 15.0727 107.832 15.9091 108.061 16.7818C108.289 17.6424 108.428 18.4303 108.476 19.1455C108.524 19.8606 108.548 20.3818 108.548 20.7091V31.7273H103.564ZM90.2377 31.7273V12.0909H94.6077V18.6H95.2216V31.7273H90.2377Z" fill="black"/>
<path d="M111.789 9.36364V5H116.701V9.36364H111.789ZM111.789 31.7273V12.0909H116.701V31.7273H111.789Z" fill="black"/>
<path d="M118.503 31.7273V31.1091L128.074 16.3818H119.587V12.0909H135.658V12.7091L126.124 27.4364H135.297V31.7273H118.503Z" fill="black"/>
<path d="M145.45 32.2727C143.451 32.2727 141.688 31.8424 140.159 30.9818C138.642 30.1091 137.45 28.9151 136.583 27.4C135.728 25.8727 135.301 24.1273 135.301 22.1636C135.301 20.0182 135.722 18.1515 136.565 16.5636C137.408 14.9758 138.57 13.7455 140.05 12.8727C141.531 11.9879 143.234 11.5455 145.161 11.5455C147.207 11.5455 148.947 12.0303 150.379 13C151.812 13.9697 152.871 15.3333 153.557 17.0909C154.244 18.8485 154.484 20.9152 154.28 23.2909H149.422V21.4727C149.422 19.4727 149.103 18.0364 148.465 17.1636C147.839 16.2788 146.81 15.8364 145.377 15.8364C143.704 15.8364 142.47 16.3515 141.675 17.3818C140.893 18.4 140.502 19.9091 140.502 21.9091C140.502 23.7394 140.893 25.1576 141.675 26.1636C142.47 27.1576 143.632 27.6545 145.161 27.6545C146.124 27.6545 146.948 27.4424 147.635 27.0182C148.321 26.5939 148.844 25.9818 149.206 25.1818L154.117 26.6C153.383 28.3939 152.221 29.7879 150.632 30.7818C149.055 31.7758 147.328 32.2727 145.45 32.2727ZM138.985 23.2909V19.6182H151.914V23.2909H138.985Z" fill="black"/>
<path d="M156.551 31.7273V12.0909H160.885V16.8909L160.416 16.2727C160.669 15.5939 161.006 14.9758 161.427 14.4182C161.848 13.8606 162.366 13.4 162.98 13.0364C163.449 12.7455 163.961 12.5212 164.515 12.3636C165.069 12.1939 165.64 12.0909 166.23 12.0545C166.82 12.0061 167.41 12.0182 168 12.0909V16.7091C167.458 16.5394 166.826 16.4848 166.104 16.5455C165.394 16.5939 164.75 16.7576 164.172 17.0364C163.594 17.303 163.106 17.6606 162.709 18.1091C162.312 18.5455 162.011 19.0667 161.806 19.6727C161.602 20.2667 161.499 20.9394 161.499 21.6909V31.7273H156.551Z" fill="black"/>
</svg>
